<svg xmlns="http://www.w3.org/2000/svg" id="a" viewBox="0 0 214.57 195.65"><defs><style>.b{fill:#e0315b}</style></defs><path d="M11.61 185.12h-.1c-.42.75-1.1 1.36-2.03 1.84-.93.48-1.99.72-3.18.72-.68 0-1.38-.09-2.12-.26a6.43 6.43 0 0 1-2.03-.87c-.62-.41-1.13-.94-1.54-1.61-.41-.66-.61-1.49-.61-2.47 0-1.26.36-2.26 1.07-3.01.71-.75 1.63-1.32 2.75-1.71 1.12-.4 2.36-.66 3.72-.79 1.36-.13 2.7-.19 4-.19v-.42c0-1.05-.38-1.82-1.14-2.33-.76-.5-1.66-.75-2.71-.75-.89 0-1.74.19-2.55.56-.82.37-1.49.83-2.03 1.36l-2.17-2.55c.96-.89 2.06-1.55 3.31-1.99 1.25-.44 2.51-.66 3.79-.66 1.49 0 2.72.21 3.69.63.97.42 1.73.97 2.29 1.64.56.68.95 1.43 1.17 2.27.22.84.33 1.68.33 2.52v10.21H11.6v-2.13Zm-.07-5.53h-.94c-.68 0-1.39.03-2.13.09-.75.06-1.43.19-2.06.38-.63.2-1.15.48-1.57.84-.42.36-.63.86-.63 1.49 0 .4.09.73.26 1s.4.48.68.65c.28.16.59.28.94.35.35.07.7.11 1.05.11 1.45 0 2.54-.38 3.29-1.15.75-.77 1.12-1.82 1.12-3.15v-.59ZM35.04 187.26h-3.99v-2.69h-.07c-.37.84-1.02 1.58-1.94 2.22-.92.64-2.01.96-3.27.96-1.1 0-2.03-.19-2.82-.58-.78-.38-1.42-.89-1.92-1.52s-.87-1.35-1.1-2.17c-.23-.82-.35-1.66-.35-2.52v-10.49h4.2v9.3c0 .49.03 1 .1 1.54s.22 1.02.45 1.45c.23.43.55.79.96 1.07.41.28.95.42 1.63.42s1.23-.13 1.73-.4.91-.61 1.22-1.03c.31-.42.55-.9.72-1.45.16-.55.24-1.1.24-1.66v-9.23h4.2v16.79ZM57.15 187.26h-3.99v-2.52h-.07c-.58.98-1.39 1.73-2.43 2.24-1.04.51-2.15.77-3.34.77-1.28 0-2.43-.24-3.44-.72a8.033 8.033 0 0 1-2.59-1.92 8.45 8.45 0 0 1-1.64-2.83c-.38-1.08-.58-2.24-.58-3.48s.2-2.39.59-3.46c.4-1.07.96-2 1.68-2.8a7.82 7.82 0 0 1 2.59-1.87c1-.45 2.1-.68 3.29-.68.77 0 1.46.09 2.06.26.61.17 1.14.39 1.59.65a6.393 6.393 0 0 1 1.97 1.71h.1v-11.79h4.2v26.44Zm-13.81-8.46c0 .65.1 1.31.3 1.96.2.65.49 1.24.89 1.75s.9.93 1.5 1.26c.61.33 1.32.49 2.13.49.77 0 1.46-.16 2.06-.47.61-.31 1.12-.73 1.56-1.24.43-.51.76-1.09.98-1.73.22-.64.33-1.29.33-1.94s-.11-1.31-.33-1.96c-.22-.65-.55-1.24-.98-1.75-.43-.51-.95-.93-1.56-1.26-.61-.33-1.29-.49-2.06-.49-.82 0-1.53.16-2.13.47-.61.31-1.11.73-1.5 1.24-.4.51-.69 1.09-.89 1.73-.2.64-.3 1.29-.3 1.94ZM62.43 164.77c0-.68.25-1.26.75-1.77.5-.5 1.14-.75 1.91-.75s1.42.24 1.94.72.79 1.08.79 1.8-.26 1.32-.79 1.8c-.52.48-1.17.72-1.94.72s-1.4-.25-1.91-.75c-.5-.5-.75-1.09-.75-1.77Zm.59 5.7h4.2v16.79h-4.2v-16.79ZM71.34 178.79c0-1.33.24-2.54.72-3.62s1.12-2.01 1.94-2.78c.82-.77 1.78-1.36 2.9-1.78 1.12-.42 2.31-.63 3.57-.63s2.45.21 3.57.63c1.12.42 2.09 1.01 2.9 1.78.82.77 1.46 1.7 1.94 2.78.48 1.08.72 2.29.72 3.62s-.24 2.54-.72 3.64a8.807 8.807 0 0 1-1.94 2.82c-.82.78-1.78 1.39-2.9 1.84-1.12.44-2.31.66-3.57.66s-2.45-.22-3.57-.66c-1.12-.44-2.09-1.05-2.9-1.84-.82-.78-1.46-1.72-1.94-2.82-.48-1.1-.72-2.31-.72-3.64Zm4.27 0c0 .65.1 1.31.3 1.96.2.65.5 1.24.89 1.75.4.51.9.93 1.5 1.26.61.33 1.33.49 2.17.49s1.56-.16 2.17-.49a4.63 4.63 0 0 0 1.5-1.26c.4-.51.69-1.1.89-1.75a6.486 6.486 0 0 0 0-3.9c-.2-.64-.5-1.22-.89-1.73-.4-.51-.9-.93-1.5-1.24-.61-.31-1.33-.47-2.17-.47s-1.56.16-2.17.47c-.61.31-1.11.73-1.5 1.24-.4.51-.69 1.09-.89 1.73-.2.64-.3 1.29-.3 1.94ZM97.22 160.82v11.79h.1c.21-.28.48-.57.8-.87.33-.3.72-.58 1.17-.84.45-.26.98-.47 1.59-.65.61-.17 1.29-.26 2.06-.26 1.19 0 2.28.23 3.29.68 1 .45 1.87 1.08 2.59 1.87.72.79 1.28 1.73 1.68 2.8.4 1.07.59 2.23.59 3.46s-.19 2.4-.58 3.48a8.45 8.45 0 0 1-1.64 2.83c-.71.8-1.57 1.45-2.59 1.92s-2.16.72-3.45.72c-1.19 0-2.3-.26-3.34-.77a5.662 5.662 0 0 1-2.43-2.24h-.07v2.52H93v-26.44h4.2Zm9.62 17.98c0-.65-.1-1.3-.3-1.94-.2-.64-.5-1.22-.89-1.73-.4-.51-.9-.93-1.5-1.24-.61-.31-1.32-.47-2.13-.47-.77 0-1.46.16-2.06.49-.61.33-1.13.75-1.56 1.26-.43.51-.76 1.1-.98 1.75-.22.65-.33 1.31-.33 1.96s.11 1.3.33 1.94c.22.64.55 1.22.98 1.73.43.51.95.93 1.56 1.24.61.31 1.29.47 2.06.47.82 0 1.53-.16 2.13-.49a4.63 4.63 0 0 0 1.5-1.26c.4-.51.69-1.1.89-1.75.2-.65.3-1.31.3-1.96ZM114.19 178.79c0-1.33.24-2.54.72-3.62s1.12-2.01 1.94-2.78c.82-.77 1.78-1.36 2.9-1.78 1.12-.42 2.31-.63 3.57-.63s2.45.21 3.57.63c1.12.42 2.09 1.01 2.9 1.78.82.77 1.46 1.7 1.94 2.78.48 1.08.72 2.29.72 3.62s-.24 2.54-.72 3.64a8.807 8.807 0 0 1-1.94 2.82c-.82.78-1.78 1.39-2.9 1.84-1.12.44-2.31.66-3.57.66s-2.45-.22-3.57-.66c-1.12-.44-2.09-1.05-2.9-1.84-.82-.78-1.46-1.72-1.94-2.82-.48-1.1-.72-2.31-.72-3.64Zm4.27 0c0 .65.1 1.31.3 1.96.2.65.5 1.24.89 1.75.4.51.9.93 1.5 1.26.61.33 1.33.49 2.17.49s1.56-.16 2.17-.49a4.63 4.63 0 0 0 1.5-1.26c.4-.51.69-1.1.89-1.75a6.486 6.486 0 0 0 0-3.9c-.2-.64-.5-1.22-.89-1.73-.4-.51-.9-.93-1.5-1.24-.61-.31-1.33-.47-2.17-.47s-1.56.16-2.17.47c-.61.31-1.11.73-1.5 1.24-.4.51-.69 1.09-.89 1.73-.2.64-.3 1.29-.3 1.94ZM135.52 178.79c0-1.33.24-2.54.72-3.62s1.12-2.01 1.94-2.78c.82-.77 1.78-1.36 2.9-1.78 1.12-.42 2.31-.63 3.57-.63s2.45.21 3.57.63c1.12.42 2.09 1.01 2.9 1.78.82.77 1.46 1.7 1.94 2.78.48 1.08.72 2.29.72 3.62s-.24 2.54-.72 3.64a8.807 8.807 0 0 1-1.94 2.82c-.82.78-1.78 1.39-2.9 1.84-1.12.44-2.31.66-3.57.66s-2.45-.22-3.57-.66c-1.12-.44-2.09-1.05-2.9-1.84-.82-.78-1.46-1.72-1.94-2.82-.48-1.1-.72-2.31-.72-3.64Zm4.27 0c0 .65.1 1.31.3 1.96.2.65.5 1.24.89 1.75.4.51.9.93 1.5 1.26.61.33 1.33.49 2.17.49s1.56-.16 2.17-.49a4.63 4.63 0 0 0 1.5-1.26c.4-.51.69-1.1.89-1.75a6.486 6.486 0 0 0 0-3.9c-.2-.64-.5-1.22-.89-1.73-.4-.51-.9-.93-1.5-1.24-.61-.31-1.33-.47-2.17-.47s-1.56.16-2.17.47c-.61.31-1.11.73-1.5 1.24-.4.51-.69 1.09-.89 1.73-.2.64-.3 1.29-.3 1.94ZM157.2 160.82h4.2v16.72h.1l6.37-7.06h5.39l-7.27 7.59 7.73 9.2h-5.56l-6.64-8.6h-.1v8.6h-4.2v-26.44ZM176.75 184.81c0-.75.27-1.39.82-1.92.55-.54 1.21-.8 1.98-.8s1.4.26 1.96.77.84 1.14.84 1.89-.27 1.39-.82 1.92c-.55.54-1.21.8-1.98.8-.37 0-.73-.07-1.07-.21-.34-.14-.64-.33-.89-.56-.26-.23-.46-.51-.61-.84-.15-.33-.23-.68-.23-1.05ZM192.08 170.47v17.8c0 1-.08 1.95-.24 2.85-.16.9-.47 1.68-.93 2.34-.45.66-1.07 1.19-1.85 1.59-.78.4-1.8.59-3.06.59-.35 0-.7-.02-1.05-.07-.35-.05-.63-.09-.84-.14l.35-3.57c.19.05.38.08.59.1.21.02.4.03.56.03.49 0 .89-.09 1.19-.28.3-.19.54-.44.7-.77.16-.33.27-.71.31-1.14.05-.43.07-.89.07-1.38v-17.98h4.2Zm-4.79-5.7c0-.68.25-1.26.75-1.77.5-.5 1.14-.75 1.91-.75s1.42.24 1.94.72.79 1.08.79 1.8-.26 1.32-.79 1.8c-.52.48-1.17.72-1.94.72s-1.4-.25-1.91-.75c-.5-.5-.75-1.09-.75-1.77ZM200.51 170.47v2.34h.1c.21-.33.48-.66.82-1 .34-.34.75-.64 1.24-.91s1.04-.49 1.66-.66a7.84 7.84 0 0 1 2.08-.26c1.19 0 2.28.23 3.29.68 1 .45 1.87 1.08 2.59 1.87.72.79 1.28 1.73 1.68 2.8.4 1.07.59 2.23.59 3.46s-.19 2.4-.58 3.48a8.45 8.45 0 0 1-1.64 2.83c-.71.8-1.57 1.45-2.59 1.92-1.01.48-2.16.72-3.45.72-1.19 0-2.28-.24-3.27-.73-.99-.49-1.75-1.15-2.29-1.99h-.07v10.63h-4.2v-25.18h4.02Zm9.79 8.32c0-.65-.1-1.3-.3-1.94-.2-.64-.5-1.22-.89-1.73-.4-.51-.9-.93-1.5-1.24-.61-.31-1.32-.47-2.13-.47-.77 0-1.46.16-2.06.49-.61.33-1.13.75-1.56 1.26-.43.51-.76 1.1-.98 1.75-.22.65-.33 1.31-.33 1.96s.11 1.3.33 1.94c.22.64.55 1.22.98 1.73.43.51.95.93 1.56 1.24.61.31 1.29.47 2.06.47.82 0 1.53-.16 2.13-.49a4.63 4.63 0 0 0 1.5-1.26c.4-.51.69-1.1.89-1.75.2-.65.3-1.31.3-1.96ZM202.6 19.82C188.29 7.23 169.75 0 151.73 0c-15.64 0-30.28 7.64-45.12 16.26C91.77 7.64 77.13 0 61.48 0 43.47 0 24.93 7.23 10.62 19.82c-.29.26-.46.63-.46 1.01v14.29c0 .53.31 1.02.8 1.23.18.08.36.12.55.12.33 0 .65-.12.91-.35 13.6-12.29 32.4-19.92 49.07-19.92 14.89 0 29.02 7.72 43.39 16.32l1.04.62c.43.26.96.26 1.39 0l1.04-.62c14.37-8.6 28.51-16.32 43.39-16.32 16.67 0 35.47 7.63 49.07 19.92.4.36.97.45 1.45.23s.8-.7.8-1.23V20.83c0-.39-.17-.76-.46-1.01Z" class="b"/><path d="M151.73 28.35c-15.64 0-30.28 7.64-45.12 16.26-14.84-8.62-29.48-16.26-45.12-16.26-18.02 0-36.56 7.23-50.87 19.82-.29.26-.46.63-.46 1.01v14.29c0 .53.31 1.02.8 1.23.18.08.36.12.55.12.33 0 .65-.12.91-.35 13.6-12.29 32.4-19.92 49.07-19.92 14.89 0 29.02 7.72 43.39 16.32l1.04.62c.43.26.96.26 1.39 0l1.04-.62c14.37-8.6 28.51-16.32 43.39-16.32 16.67 0 35.47 7.63 49.07 19.92.4.36.97.45 1.45.23s.8-.7.8-1.23V49.18c0-.39-.17-.76-.46-1.01-14.31-12.6-32.85-19.82-50.87-19.82Z" class="b"/><path d="M151.73 56.7c-15.64 0-30.28 7.64-45.12 16.26C91.77 64.34 77.13 56.7 61.49 56.7c-18.02 0-36.56 7.23-50.87 19.82-.29.26-.46.63-.46 1.01v14.29c0 .53.31 1.02.8 1.23.18.08.36.12.55.12.33 0 .65-.12.91-.35 13.6-12.29 32.4-19.92 49.07-19.92 14.89 0 29.02 7.72 43.39 16.32l1.04.62c.43.26.96.26 1.39 0l1.04-.62c14.37-8.6 28.51-16.32 43.39-16.32 16.67 0 35.47 7.63 49.07 19.92.4.36.97.45 1.45.23s.8-.7.8-1.23V77.53c0-.39-.17-.76-.46-1.01-14.31-12.6-32.85-19.82-50.87-19.82Z" class="b"/><path d="M151.73 85.05c-15.64 0-30.28 7.64-45.12 16.26-14.84-8.62-29.48-16.26-45.12-16.26-18.02 0-36.56 7.23-50.87 19.82-.29.26-.46.63-.46 1.01v14.29c0 .53.31 1.02.8 1.23.18.08.36.12.55.12.33 0 .65-.12.91-.35 13.6-12.29 32.4-19.92 49.07-19.92 14.89 0 29.02 7.72 43.39 16.32l1.04.62c.43.26.96.26 1.39 0l1.04-.62c14.37-8.6 28.51-16.32 43.39-16.32 16.67 0 35.47 7.63 49.07 19.92.4.36.97.45 1.45.23s.8-.7.8-1.23v-14.29c0-.39-.17-.76-.46-1.01-14.31-12.6-32.85-19.82-50.87-19.82Z" class="b"/><path d="M151.73 113.39c-15.64 0-30.28 7.64-45.12 16.26-14.84-8.62-29.48-16.26-45.12-16.26-18.02 0-36.56 7.23-50.87 19.82-.29.26-.46.63-.46 1.01v14.29c0 .53.31 1.02.8 1.23.18.08.36.12.55.12.33 0 .65-.12.91-.35 13.6-12.29 32.4-19.92 49.07-19.92 14.89 0 29.02 7.72 43.39 16.32l1.04.62c.43.26.96.26 1.39 0l1.04-.62c14.37-8.6 28.51-16.32 43.39-16.32 16.67 0 35.47 7.63 49.07 19.92.4.36.97.45 1.45.23s.8-.7.8-1.23v-14.29c0-.39-.17-.76-.46-1.01-14.31-12.6-32.85-19.82-50.87-19.82Z" class="b"/></svg>
